<?xml version="1.0" encoding="UTF-8" standalone="no"?><svg xmlns="http://www.w3.org/2000/svg" xmlns:xlink="http://www.w3.org/1999/xlink" contentScriptType="application/ecmascript" contentStyleType="text/css" height="222px" preserveAspectRatio="none" style="width:123px;height:222px;background:#FFFFFF;" version="1.1" viewBox="0 0 123 222" width="123px" zoomAndPan="magnify"><defs><filter height="300%" id="fa99ftkjkuqd9" width="300%" x="-1" y="-1"><feGaussianBlur result="blurOut" stdDeviation="2.0"/><feColorMatrix in="blurOut" result="blurOut2" type="matrix" values="0 0 0 0 0 0 0 0 0 0 0 0 0 0 0 0 0 0 .4 0"/><feOffset dx="4.0" dy="4.0" in="blurOut2" result="blurOut3"/><feBlend in="SourceGraphic" in2="blurOut3" mode="normal"/></filter></defs><g><!--MD5=[3fd616f346a44cd59a91eb10b19e157c]
class User--><rect codeLine="1" fill="#FEFECE" filter="url(#fa99ftkjkuqd9)" height="92.9457" id="User" style="stroke:#A80036;stroke-width:1.5;" width="95" x="10.5" y="7"/><ellipse cx="41.7" cy="23" fill="#ADD1B2" rx="11" ry="11" style="stroke:#A80036;stroke-width:1.0;"/><path d="M41.1688,29.9219 Q39.4188,29.9219 38.2781,29.1875 Q37.1531,28.4375 36.5906,27.0938 Q36.0438,25.7344 36.0438,23.9375 Q36.0438,21.9063 36.7,20.4531 Q37.3563,19 38.6375,18.2188 Q39.9188,17.4375 41.7938,17.4375 Q42.6844,17.4375 43.3563,17.625 Q44.0281,17.7969 44.7156,18.1406 L43.9031,20.1563 Q43.2781,19.8438 42.7313,19.7188 Q42.2,19.5938 41.7156,19.5938 Q40.5438,19.5938 39.8406,20.125 Q39.1375,20.6563 38.8406,21.6094 Q38.5438,22.5625 38.5438,23.8281 Q38.5438,25.8438 39.2625,26.8125 Q39.9813,27.7656 41.575,27.7656 Q42.1688,27.7656 42.7938,27.6094 Q43.4188,27.4531 44.2469,27.0781 L44.2469,29.2969 Q43.5125,29.6094 42.7156,29.7656 Q41.9344,29.9219 41.1688,29.9219 Z " fill="#000000"/><text fill="#000000" font-family="sans-serif" font-size="12" lengthAdjust="spacing" textLength="27" x="59.3" y="27.656">User</text><line style="stroke:#A80036;stroke-width:1.5;" x1="11.5" x2="104.5" y1="39" y2="39"/><rect fill="none" height="6" style="stroke:#C82930;stroke-width:1.0;" width="6" x="18.5" y="47"/><text fill="#000000" font-family="sans-serif" font-size="11" lengthAdjust="spacing" textLength="46" x="30.5" y="54.7589">string ID</text><rect fill="none" height="6" style="stroke:#C82930;stroke-width:1.0;" width="6" x="18.5" y="61.9819"/><text fill="#000000" font-family="sans-serif" font-size="11" lengthAdjust="spacing" textLength="64" x="30.5" y="69.7408">string Name</text><line style="stroke:#A80036;stroke-width:1.5;" x1="11.5" x2="104.5" y1="76.9638" y2="76.9638"/><ellipse cx="21.5" cy="87.9638" fill="#84BE84" rx="3" ry="3" style="stroke:#038048;stroke-width:1.0;"/><text fill="#000000" font-family="sans-serif" font-size="11" lengthAdjust="spacing" textLength="69" x="30.5" y="92.7227">string name()</text><!--MD5=[da382c11ee1fec359311af0da36294da]
class SpecificUser--><rect fill="#FEFECE" filter="url(#fa99ftkjkuqd9)" height="48" id="SpecificUser" style="stroke:#A80036;stroke-width:1.5;" width="102" x="7" y="160"/><ellipse cx="22" cy="176" fill="#ADD1B2" rx="11" ry="11" style="stroke:#A80036;stroke-width:1.0;"/><path d="M21.4688,182.9219 Q19.7188,182.9219 18.5781,182.1875 Q17.4531,181.4375 16.8906,180.0938 Q16.3438,178.7344 16.3438,176.9375 Q16.3438,174.9063 17,173.4531 Q17.6563,172 18.9375,171.2188 Q20.2188,170.4375 22.0938,170.4375 Q22.9844,170.4375 23.6563,170.625 Q24.3281,170.7969 25.0156,171.1406 L24.2031,173.1563 Q23.5781,172.8438 23.0313,172.7188 Q22.5,172.5938 22.0156,172.5938 Q20.8438,172.5938 20.1406,173.125 Q19.4375,173.6563 19.1406,174.6094 Q18.8438,175.5625 18.8438,176.8281 Q18.8438,178.8438 19.5625,179.8125 Q20.2813,180.7656 21.875,180.7656 Q22.4688,180.7656 23.0938,180.6094 Q23.7188,180.4531 24.5469,180.0781 L24.5469,182.2969 Q23.8125,182.6094 23.0156,182.7656 Q22.2344,182.9219 21.4688,182.9219 Z " fill="#000000"/><text fill="#000000" font-family="sans-serif" font-size="12" lengthAdjust="spacing" textLength="70" x="36" y="180.656">SpecificUser</text><line style="stroke:#A80036;stroke-width:1.5;" x1="8" x2="108" y1="192" y2="192"/><line style="stroke:#A80036;stroke-width:1.5;" x1="8" x2="108" y1="200" y2="200"/><!--MD5=[16040c4f3b10eccb0dfeec293bcc78d2]
reverse link User to SpecificUser--><path codeLine="6" d="M58,121.58 C58,135.35 58,148.95 58,159.83 " fill="none" id="User-backto-SpecificUser" style="stroke:#A80036;stroke-width:1.0;"/><polygon fill="none" points="51,121.68,58,101.68,65,121.68,51,121.68" style="stroke:#A80036;stroke-width:1.0;"/><!--MD5=[834906591f7dc7a3f5c90ea5b4bc1949]
@startuml
class User {
    -string ID
    -string Name
    +string name()
}
User <|- - SpecificUser
@enduml

PlantUML version 1.2021.9(Sun Jul 25 13:13:56 MSK 2021)
(GPL source distribution)
Java Runtime: OpenJDK Runtime Environment
JVM: OpenJDK 64-Bit Server VM
Default Encoding: UTF-8
Language: ru
Country: RU
--></g></svg>